<?xml version="1.0" encoding="utf-8"?>
<!-- Generator: Adobe Illustrator 17.0.0, SVG Export Plug-In . SVG Version: 6.00 Build 0)  -->
<!DOCTYPE svg PUBLIC "-//W3C//DTD SVG 1.1//EN" "http://www.w3.org/Graphics/SVG/1.1/DTD/svg11.dtd">
<svg version="1.1" id="Layer_1" xmlns:sketch="http://www.bohemiancoding.com/sketch/ns"
	 xmlns="http://www.w3.org/2000/svg" xmlns:xlink="http://www.w3.org/1999/xlink" x="0px" y="0px" width="124px" height="23px"
	 viewBox="0 0 124 23" enable-background="new 0 0 124 23" xml:space="preserve">
<g>
	<path fill="#1784C7" d="M7.031,2.99h7.714c4.556,0,7.666,2.033,7.666,6.098v0.049c0,4.139-3.159,6.342-7.788,6.342h-1.861v4.654
		H7.031V2.99z M14.305,11.389c1.469,0,2.449-0.661,2.449-1.886V9.455c0-1.249-0.906-1.886-2.424-1.886h-1.567v3.82H14.305z"/>
	<path fill="#1784C7" d="M23.64,2.99h8.376c3.037,0,4.971,0.759,6.171,1.959c1.029,1.029,1.567,2.302,1.567,4.065v0.049
		c0,2.498-1.298,4.237-3.38,5.24l3.992,5.83h-6.539l-3.232-4.898h-1.225v4.898H23.64V2.99z M31.845,11.145
		c1.371,0,2.204-0.612,2.204-1.666V9.43c0-1.102-0.857-1.641-2.18-1.641h-2.498v3.355H31.845z"/>
	<path fill="#1784C7" d="M41.155,2.99h14.621v4.702h-8.988V9.43h8.376v4.139h-8.376v1.861h9.11v4.703H41.155V2.99z"/>
	<path fill="#1784C7" d="M57.446,2.99h6.564c6.808,0,10.212,3.355,10.212,8.424v0.049c0,5.07-3.478,8.67-10.408,8.67h-6.368V2.99z
		 M64.132,15.137c2.621,0,4.311-1.078,4.311-3.552v-0.049c0-2.474-1.689-3.551-4.311-3.551h-0.955v7.152H64.132z"/>
	<path fill="#1784C7" d="M75.843,2.99h5.731v17.144h-5.731V2.99z"/>
	<path fill="#1784C7" d="M89.56,2.867h5.682l7.225,17.266h-6.22L95.34,17.83h-6.001l-0.881,2.303h-6.123L89.56,2.867z
		 M93.919,13.765l-1.567-4.164l-1.567,4.164H93.919z"/>
	<path fill="#1784C7" d="M103.181,2.99h5.73v12.245h8.058v4.898h-13.788V2.99z"/>
</g>
</svg>
