<?xml version="1.0" encoding="utf-8"?>
<!-- Generator: Adobe Illustrator 17.0.0, SVG Export Plug-In . SVG Version: 6.00 Build 0)  -->
<!DOCTYPE svg PUBLIC "-//W3C//DTD SVG 1.1//EN" "http://www.w3.org/Graphics/SVG/1.1/DTD/svg11.dtd">
<svg version="1.1" id="Capa_1" xmlns="http://www.w3.org/2000/svg" xmlns:xlink="http://www.w3.org/1999/xlink" x="0px" y="0px"
	 width="128px" height="16px" viewBox="-8 0 128 16" enable-background="new -8 0 128 16" xml:space="preserve">
<g>
	<g transform="translate(0, 0)">
		<path fill="#585C64" d="M7,16H-7c-0.6,0-1-0.4-1-1V1c0-0.6,0.4-1,1-1H7c0.6,0,1,0.4,1,1v14C8,15.6,7.6,16,7,16z M-6,14H6V2H-6V14z
			"/>
		<path fill="#585C64" d="M-2,4c0.6,0,1,0.4,1,1s-0.4,1-1,1s-1-0.4-1-1S-2.6,4-2,4z"/>
		<polygon fill="#585C64" points="-5,12 -3,8 -1,10 2,6 5,12 		"/>
	</g>
	<g transform="translate(16, 0)">
		<path fill="#585C64" d="M0,2c1.1,0,2,0.9,2,2v1c0,1.1-0.9,2-2,2s-2-0.9-2-2V4C-2,2.9-1.1,2,0,2 M0,0c-2.2,0-4,1.8-4,4v1
			c0,2.2,1.8,4,4,4s4-1.8,4-4V4C4,1.8,2.2,0,0,0L0,0z"/>
		<path fill="#585C64" d="M1,12c1.5,0,2.8,0.8,3.5,2h-8.9c0.7-1.2,2-2,3.5-2H1 M1,10h-2c-3.3,0-6,2.7-6,6l0,0H7l0,0
			C7,12.7,4.3,10,1,10L1,10z"/>
	</g>
	<g transform="translate(32, 0)">
		<path fill="#585C64" d="M4,0H-7v16H4c1.7,0,3-1.3,3-3V3C7,1.3,5.7,0,4,0z M5,13c0,0.6-0.4,1-1,1h-9V2h9c0.6,0,1,0.4,1,1V13z"/>
		<polygon fill="#585C64" points="-3,9 -1,7 1,9 1,3 -3,3 		"/>
	</g>
	<g transform="translate(48, 0)">
		<path fill="#585C64" d="M0,0c-4.4,0-8,3.1-8,7s3.6,7,8,7c0.2,0,0.4,0,0.6,0L6,16v-4.4C7.2,10.4,8,8.8,8,7C8,3.1,4.4,0,0,0z
			 M4,10.8v2.3L0.9,12c0,0-0.7,0-0.9,0c-3.3,0-6-2.2-6-5s2.7-5,6-5s6,2.2,6,5C6,9.2,4,10.8,4,10.8z"/>
	</g>
	<g transform="translate(64, 0)">
		<path fill="#585C64" d="M0,0c-4.4,0-8,3.6-8,8s3.6,8,8,8s8-3.6,8-8S4.4,0,0,0z M5.9,9H0.7l-1.8-4.4l-1.8,0.8L-1.5,9h-4.4
			C-6,8.7-6,8.3-6,8c0-3.3,2.7-6,6-6s6,2.7,6,6C6,8.3,6,8.7,5.9,9z"/>
	</g>
	<g transform="translate(80, 0)">
		<path fill="#585C64" d="M2,14h-4c0,1.1,0.9,2,2,2S2,15.1,2,14z"/>
		<path fill="#585C64" d="M7,11H6.5C5.8,10.3,5,9.3,5,8V5c0-2.8-2.2-5-5-5s-5,2.2-5,5v3c0,1.3-0.8,2.3-1.5,3H-7c-0.6,0-1,0.4-1,1
			s0.4,1,1,1H7c0.6,0,1-0.4,1-1S7.6,11,7,11z"/>
	</g>
	<g>
		<g>
			<path fill="#585C64" d="M96,3.23l-5.706,5.911c0,0.008-0.002,0.021-0.005,0.037c-0.003,0.017-0.005,0.029-0.005,0.037v5.986
				c0,0.216,0.063,0.403,0.189,0.561C90.598,15.92,90.747,16,90.919,16h3.811v-4.789h2.541V16h3.811
				c0.172,0,0.321-0.079,0.447-0.237c0.126-0.158,0.189-0.345,0.189-0.561V9.216c0-0.033-0.004-0.058-0.01-0.075L96,3.23z"/>
			<path fill="#585C64" d="M103.89,7.794l-2.173-2.27V0.437c0-0.116-0.03-0.212-0.089-0.287c-0.059-0.075-0.135-0.112-0.228-0.112
				h-1.905c-0.093,0-0.169,0.037-0.228,0.112c-0.059,0.075-0.089,0.171-0.089,0.287v2.432l-2.421-2.544C96.543,0.108,96.291,0,96,0
				c-0.291,0-0.543,0.108-0.754,0.324l-7.136,7.47c-0.066,0.066-0.102,0.156-0.109,0.268c-0.007,0.112,0.016,0.21,0.069,0.293
				l0.615,0.923c0.053,0.075,0.122,0.121,0.208,0.137c0.079,0.008,0.159-0.021,0.238-0.087L96,2.133l6.868,7.196
				c0.053,0.058,0.122,0.087,0.208,0.087h0.03c0.086-0.016,0.155-0.062,0.208-0.137l0.615-0.923
				c0.053-0.083,0.076-0.181,0.069-0.293C103.992,7.95,103.956,7.861,103.89,7.794z"/>
		</g>
	</g>
	<g>
		<path fill="#585C64" d="M118.927,3.984c-0.715-1.226-1.686-2.196-2.911-2.911C114.79,0.358,113.452,0,112,0
			c-1.451,0-2.79,0.358-4.016,1.073c-1.226,0.715-2.196,1.686-2.912,2.911C104.358,5.21,104,6.549,104,8
			c0,1.451,0.358,2.79,1.073,4.016c0.715,1.226,1.686,2.196,2.911,2.911C109.21,15.642,110.549,16,112,16
			c1.451,0,2.79-0.358,4.016-1.073c1.226-0.715,2.196-1.686,2.911-2.911C119.642,10.79,120,9.451,120,8
			C120,6.549,119.642,5.21,118.927,3.984z M116.906,10.844c-0.507,0.868-1.194,1.555-2.062,2.063
			c-0.868,0.507-1.816,0.76-2.844,0.76c-1.028,0-1.976-0.253-2.844-0.76c-0.868-0.507-1.555-1.195-2.062-2.063
			c-0.507-0.868-0.76-1.816-0.76-2.844c0-1.028,0.254-1.976,0.76-2.844c0.507-0.868,1.194-1.556,2.062-2.063
			c0.868-0.507,1.816-0.76,2.844-0.76c1.028,0,1.976,0.253,2.844,0.76c0.868,0.507,1.556,1.194,2.062,2.063
			c0.507,0.868,0.76,1.816,0.76,2.844C117.667,9.028,117.413,9.976,116.906,10.844z"/>
	</g>
</g>
</svg>
